<mxfile host="Electron" modified="2023-11-03T08:55:06.243Z" agent="Mozilla/5.0 (Macintosh; Intel Mac OS X 10_15_7) AppleWebKit/537.36 (KHTML, like Gecko) draw.io/22.0.3 Chrome/114.0.5735.289 Electron/25.8.4 Safari/537.36" etag="6Lhnf1oJxMfbuDZ-MQTq" version="22.0.3" type="device">
  <diagram name="第 1 页" id="YpyWQQhPWYu5D_Lu92O6">
    <mxGraphModel dx="892" dy="572" grid="1" gridSize="10" guides="1" tooltips="1" connect="1" arrows="1" fold="1" page="1" pageScale="1" pageWidth="827" pageHeight="1169" math="0" shadow="0">
      <root>
        <mxCell id="0" />
        <mxCell id="1" parent="0" />
        <mxCell id="10sBeWujtOkHWsVLIqVV-17" style="rounded=0;orthogonalLoop=1;jettySize=auto;html=1;exitX=0.5;exitY=0;exitDx=0;exitDy=0;entryX=0.25;entryY=1;entryDx=0;entryDy=0;strokeWidth=3;" edge="1" parent="1" source="10sBeWujtOkHWsVLIqVV-1" target="10sBeWujtOkHWsVLIqVV-6">
          <mxGeometry relative="1" as="geometry">
            <Array as="points" />
          </mxGeometry>
        </mxCell>
        <mxCell id="10sBeWujtOkHWsVLIqVV-1" value="fib(4)" style="rounded=0;whiteSpace=wrap;html=1;fontSize=32;" vertex="1" parent="1">
          <mxGeometry x="140" y="90" width="120" height="60" as="geometry" />
        </mxCell>
        <mxCell id="10sBeWujtOkHWsVLIqVV-12" style="rounded=0;orthogonalLoop=1;jettySize=auto;html=1;exitX=0.5;exitY=0;exitDx=0;exitDy=0;entryX=0.25;entryY=1;entryDx=0;entryDy=0;strokeWidth=3;" edge="1" parent="1" source="10sBeWujtOkHWsVLIqVV-2" target="10sBeWujtOkHWsVLIqVV-1">
          <mxGeometry relative="1" as="geometry" />
        </mxCell>
        <mxCell id="10sBeWujtOkHWsVLIqVV-2" value="&lt;font style=&quot;font-size: 32px;&quot;&gt;fib(3)&lt;/font&gt;" style="rounded=0;whiteSpace=wrap;html=1;" vertex="1" parent="1">
          <mxGeometry x="70" y="170" width="120" height="60" as="geometry" />
        </mxCell>
        <mxCell id="10sBeWujtOkHWsVLIqVV-13" style="rounded=0;orthogonalLoop=1;jettySize=auto;html=1;exitX=0.5;exitY=0;exitDx=0;exitDy=0;entryX=0.75;entryY=1;entryDx=0;entryDy=0;strokeWidth=3;" edge="1" parent="1" source="10sBeWujtOkHWsVLIqVV-3" target="10sBeWujtOkHWsVLIqVV-1">
          <mxGeometry relative="1" as="geometry" />
        </mxCell>
        <mxCell id="10sBeWujtOkHWsVLIqVV-3" value="fib(2)" style="rounded=0;whiteSpace=wrap;html=1;fontSize=32;" vertex="1" parent="1">
          <mxGeometry x="210" y="170" width="120" height="60" as="geometry" />
        </mxCell>
        <mxCell id="10sBeWujtOkHWsVLIqVV-10" style="rounded=0;orthogonalLoop=1;jettySize=auto;html=1;exitX=0.5;exitY=0;exitDx=0;exitDy=0;entryX=0.25;entryY=1;entryDx=0;entryDy=0;strokeWidth=3;" edge="1" parent="1" source="10sBeWujtOkHWsVLIqVV-4" target="10sBeWujtOkHWsVLIqVV-2">
          <mxGeometry relative="1" as="geometry">
            <Array as="points" />
          </mxGeometry>
        </mxCell>
        <mxCell id="10sBeWujtOkHWsVLIqVV-4" value="&lt;font style=&quot;font-size: 32px;&quot;&gt;fib(2)&lt;/font&gt;" style="rounded=0;whiteSpace=wrap;html=1;" vertex="1" parent="1">
          <mxGeometry y="250" width="120" height="60" as="geometry" />
        </mxCell>
        <mxCell id="10sBeWujtOkHWsVLIqVV-11" style="rounded=0;orthogonalLoop=1;jettySize=auto;html=1;exitX=0.5;exitY=0;exitDx=0;exitDy=0;entryX=0.75;entryY=1;entryDx=0;entryDy=0;strokeWidth=3;" edge="1" parent="1" source="10sBeWujtOkHWsVLIqVV-5" target="10sBeWujtOkHWsVLIqVV-2">
          <mxGeometry relative="1" as="geometry" />
        </mxCell>
        <mxCell id="10sBeWujtOkHWsVLIqVV-5" value="&lt;font style=&quot;font-size: 32px;&quot;&gt;fib(1)&lt;/font&gt;" style="rounded=0;whiteSpace=wrap;html=1;" vertex="1" parent="1">
          <mxGeometry x="140" y="250" width="120" height="60" as="geometry" />
        </mxCell>
        <mxCell id="10sBeWujtOkHWsVLIqVV-16" style="rounded=0;orthogonalLoop=1;jettySize=auto;html=1;exitX=0.5;exitY=0;exitDx=0;exitDy=0;entryX=0.75;entryY=1;entryDx=0;entryDy=0;strokeWidth=3;" edge="1" parent="1" source="10sBeWujtOkHWsVLIqVV-7" target="10sBeWujtOkHWsVLIqVV-6">
          <mxGeometry relative="1" as="geometry" />
        </mxCell>
        <mxCell id="10sBeWujtOkHWsVLIqVV-6" value="fib(5)" style="rounded=0;whiteSpace=wrap;html=1;fontSize=32;" vertex="1" parent="1">
          <mxGeometry x="280" width="120" height="60" as="geometry" />
        </mxCell>
        <mxCell id="10sBeWujtOkHWsVLIqVV-7" value="fib(3)" style="rounded=0;whiteSpace=wrap;html=1;fontSize=32;" vertex="1" parent="1">
          <mxGeometry x="414" y="90" width="120" height="60" as="geometry" />
        </mxCell>
        <mxCell id="10sBeWujtOkHWsVLIqVV-14" style="rounded=0;orthogonalLoop=1;jettySize=auto;html=1;exitX=0.5;exitY=0;exitDx=0;exitDy=0;entryX=0.25;entryY=1;entryDx=0;entryDy=0;strokeWidth=3;" edge="1" parent="1" source="10sBeWujtOkHWsVLIqVV-8" target="10sBeWujtOkHWsVLIqVV-7">
          <mxGeometry relative="1" as="geometry" />
        </mxCell>
        <mxCell id="10sBeWujtOkHWsVLIqVV-8" value="fib(2)" style="rounded=0;whiteSpace=wrap;html=1;fontSize=32;" vertex="1" parent="1">
          <mxGeometry x="350" y="170" width="120" height="60" as="geometry" />
        </mxCell>
        <mxCell id="10sBeWujtOkHWsVLIqVV-15" style="rounded=0;orthogonalLoop=1;jettySize=auto;html=1;exitX=0.5;exitY=0;exitDx=0;exitDy=0;entryX=0.75;entryY=1;entryDx=0;entryDy=0;strokeWidth=3;" edge="1" parent="1" source="10sBeWujtOkHWsVLIqVV-9" target="10sBeWujtOkHWsVLIqVV-7">
          <mxGeometry relative="1" as="geometry" />
        </mxCell>
        <mxCell id="10sBeWujtOkHWsVLIqVV-9" value="fib(1)" style="rounded=0;whiteSpace=wrap;html=1;fontSize=32;" vertex="1" parent="1">
          <mxGeometry x="490" y="170" width="120" height="60" as="geometry" />
        </mxCell>
      </root>
    </mxGraphModel>
  </diagram>
</mxfile>
